<svg width="380" height="179" viewBox="0 0 380 179" fill="none" xmlns="http://www.w3.org/2000/svg">
<g clip-path="url(#clip0_29_98)">
<path d="M9.86751 74.7843C-8.87937 118.802 37.8534 138.103 72.5141 145.956C93.267 150.559 114.456 152.526 135.606 151.814C162.976 150.973 191.854 142.396 218.571 127.394C244.311 112.934 266.712 92.9604 288.647 73.66C300.401 63.2389 312.192 52.8648 324.42 42.9045C336.789 32.8257 348.885 22.6129 357.211 9.73437C357.576 9.93088 357.953 10.1182 358.317 10.3081C336.747 28.1302 311.283 52.3518 283.763 56.3493C283 56.4623 282.773 55.6073 283.505 55.1249C308.825 38.2638 332.565 19.3012 356.212 0.310183C356.865 -0.203384 357.426 0.355399 357.286 0.884073C352.021 20.9131 345.151 40.9521 341.391 60.8969C341.271 61.4897 340.236 61.6941 340.352 61.1157C343.481 41.0987 350.489 20.9897 355.82 0.837187L356.885 1.39932C333.201 20.3433 309.498 39.3188 284.166 56.1892L283.908 54.9648C310.872 51.0298 336.178 27.0328 357.338 9.58448C358.003 9.03417 358.975 9.37648 358.443 10.1517C349.965 22.5223 338.772 32.4696 326.664 42.3089C312.319 53.973 298.532 66.1487 284.684 78.3169C261.136 99.0033 236.869 119.451 208.632 133.583C161.943 156.969 114.327 155.817 73.2659 146.981C38.4215 139.481 -10.5675 119.301 9.51238 74.7634C9.61593 74.5638 9.96553 74.5585 9.86751 74.7843Z" fill="#CD6C38"/>
</g>
<defs>
<clipPath id="clip0_29_98">
<rect width="365" height="106" fill="white" transform="translate(0 75.2213) rotate(-11.8931)"/>
</clipPath>
</defs>
</svg>
