<svg width="67" height="67" viewBox="0 0 67 67" fill="none" xmlns="http://www.w3.org/2000/svg">
<path d="M58.625 25.125V10.4688C58.625 9.31714 57.6828 8.375 56.5312 8.375H41.875C40.7234 8.375 39.7812 9.31714 39.7812 10.4688V25.125C39.7812 26.2765 40.7234 27.2188 41.875 27.2188H56.5312C57.6828 27.2188 58.625 26.2765 58.625 25.125ZM56.5312 4.1875C60.0069 4.1875 62.8125 6.99312 62.8125 10.4688V25.125C62.8125 28.6006 60.0069 31.4062 56.5312 31.4062H41.875C38.3994 31.4062 35.5938 28.6006 35.5938 25.125V10.4688C35.5938 6.99312 38.3994 4.1875 41.875 4.1875H56.5312Z" fill="#CD6C38"/>
<path d="M58.625 56.5312V41.875C58.625 40.7234 57.6828 39.7812 56.5312 39.7812H41.875C40.7234 39.7812 39.7812 40.7234 39.7812 41.875V56.5312C39.7812 57.6828 40.7234 58.625 41.875 58.625H56.5312C57.6828 58.625 58.625 57.6828 58.625 56.5312ZM56.5312 35.5938C60.0069 35.5938 62.8125 38.3994 62.8125 41.875V56.5312C62.8125 60.0069 60.0069 62.8125 56.5312 62.8125H41.875C38.3994 62.8125 35.5938 60.0069 35.5938 56.5312V41.875C35.5938 38.3994 38.3994 35.5938 41.875 35.5938H56.5312Z" fill="#CD6C38"/>
<path d="M25.125 27.2188C26.2765 27.2188 27.2188 26.2765 27.2188 25.125V10.4688C27.2188 9.31714 26.2765 8.375 25.125 8.375H10.4688C9.31714 8.375 8.375 9.31714 8.375 10.4688V25.125C8.375 26.2765 9.31714 27.2188 10.4688 27.2188H25.125ZM25.125 4.1875C28.6006 4.1875 31.4062 6.99312 31.4062 10.4688V25.125C31.4062 28.6006 28.6006 31.4062 25.125 31.4062H10.4688C6.99312 31.4062 4.1875 28.6006 4.1875 25.125V10.4688C4.1875 6.99312 6.99312 4.1875 10.4688 4.1875H25.125Z" fill="#CD6C38"/>
<path d="M25.125 58.625C26.2765 58.625 27.2188 57.6828 27.2188 56.5312V41.875C27.2188 40.7234 26.2765 39.7812 25.125 39.7812H10.4688C9.31714 39.7812 8.375 40.7234 8.375 41.875V56.5312C8.375 57.6828 9.31714 58.625 10.4688 58.625H25.125ZM25.125 35.5938C28.6006 35.5938 31.4062 38.3994 31.4062 41.875V56.5312C31.4062 60.0069 28.6006 62.8125 25.125 62.8125H10.4688C6.99312 62.8125 4.1875 60.0069 4.1875 56.5312V41.875C4.1875 38.3994 6.99312 35.5938 10.4688 35.5938H25.125Z" fill="#CD6C38"/>
</svg>
