<svg width="66" height="66" viewBox="0 0 66 66" fill="none" xmlns="http://www.w3.org/2000/svg">
<g clip-path="url(#clip0_77_65)">
<mask id="mask0_77_65" style="mask-type:luminance" maskUnits="userSpaceOnUse" x="0" y="0" width="66" height="66">
<path d="M66 0H0V66H66V0Z" fill="white"/>
</mask>
<g mask="url(#mask0_77_65)">
<path d="M29.7001 8.79985H36.3001C36.9001 8.79985 37.4001 8.29985 37.4001 7.69985C37.4001 7.09985 36.9001 6.59985 36.3001 6.59985H29.7001C29.1001 6.59985 28.6001 7.09985 28.6001 7.69985C28.6001 8.29985 29.1001 8.79985 29.7001 8.79985Z" fill="#CD6C38"/>
<path d="M48.3998 8.79985H60.4998C61.0998 8.79985 61.5998 8.29985 61.5998 7.69985C61.5998 7.09985 61.0998 6.59985 60.4998 6.59985H48.3998C47.7998 6.59985 47.2998 7.09985 47.2998 7.69985C47.2998 8.29985 47.7998 8.79985 48.3998 8.79985Z" fill="#CD6C38"/>
<path d="M60.5 2.19995H5.5C2.5 2.19995 0 4.69995 0 7.69995V49.5C0 52.5 2.5 55 5.5 55H15.4C19.5 60.5 26.1 63.7999 33 63.7999C39.9 63.7999 46.4 60.5 50.6 55H60.5C63.5 55 66 52.5 66 49.5V7.69995C66 4.69995 63.5 2.19995 60.5 2.19995ZM5.5 4.39995H60.5C62.3 4.39995 63.8 5.89995 63.8 7.69995V11H2.2V7.69995C2.2 5.89995 3.7 4.39995 5.5 4.39995ZM33 61.5999C26.7 61.5999 20.7 58.6 17 53.4C16.7 53 16.7 52.5 17 52.0999L17.1 52C17.3 51.7 17.6 51.5999 17.9 51.5999C18.3 51.5999 18.6 51.7999 18.8 52.0999C19.5 53 20.2 53.7999 21 54.5999C27.7 60.8999 38.2 60.8999 44.9 54.5999C47.3 52.3999 49 49.6 49.9 46.4C50 46.1 49.9 45.7 49.7 45.4C49.5 45.1 49.2 45 48.8 45H47.2V44.7999L50.2 41.2C50.2 41.2 50.2 41.0999 50.3 41.0999L51.7 39.5L56.1 44.7999L57 44.0999L56.1 45H53.5C53 45 52.5 45.4 52.4 45.9C50.4 55.1 42.3 61.5999 33 61.5999ZM25.1 55H40.9C36.1 57.9 30 57.9 25.1 55ZM60.5 52.7999H52C53 51.0999 53.8 49.2 54.3 47.2999H56.1C57 47.2999 57.8 46.7999 58.1 46C58.5 45.2 58.4 44.2 57.8 43.5L53.4 38.2C53 37.7 52.3 37.4 51.7 37.4C51 37.4 50.4 37.7 50 38.2L48.6 39.9C48.6 39.9 48.6 40 48.5 40L45.6 43.5C45 44.2 44.9 45.2 45.3 46C45.7 46.7999 46.4 47.2999 47.3 47.2999C46.5 49.3999 45.3 51.2999 43.7 52.7999H22.3C21.7 52.2 21.1 51.6 20.6 50.9C20 50 19 49.5 17.9 49.5C16.9 49.5 16 49.8999 15.4 50.5999L15.3 50.7C14.8 51.2999 14.5 52 14.6 52.7999H5.5C3.7 52.7999 2.2 51.2999 2.2 49.5V13.2H63.8V49.5C63.8 51.2999 62.3 52.7999 60.5 52.7999Z" fill="#CD6C38"/>
<path d="M5.4999 8.79985C6.0999 8.79985 6.5999 8.29985 6.5999 7.69985C6.5999 7.09985 6.0999 6.59985 5.4999 6.59985C4.8999 6.59985 4.3999 7.09985 4.3999 7.69985C4.3999 8.29985 4.8999 8.79985 5.4999 8.79985Z" fill="#CD6C38"/>
<path d="M9.8998 8.79985C10.4998 8.79985 10.9998 8.29985 10.9998 7.69985C10.9998 7.09985 10.4998 6.59985 9.8998 6.59985C9.2998 6.59985 8.7998 7.09985 8.7998 7.69985C8.7998 8.29985 9.2998 8.79985 9.8998 8.79985Z" fill="#CD6C38"/>
<path d="M14.3002 8.79985C14.9002 8.79985 15.4002 8.29985 15.4002 7.69985C15.4002 7.09985 14.9002 6.59985 14.3002 6.59985C13.7002 6.59985 13.2002 7.09985 13.2002 7.69985C13.2002 8.29985 13.7002 8.79985 14.3002 8.79985Z" fill="#CD6C38"/>
<path d="M33.0002 19.8C22.5002 19.8 13.5002 27.1001 11.4002 37.4001H9.90016C9.00016 37.4001 8.20016 37.9001 7.90016 38.7001C7.50016 39.5 7.60016 40.5 8.20016 41.2001L12.6002 46.5C13.0002 47 13.7002 47.3 14.3002 47.3C15.0002 47.3 15.6002 47 16.0002 46.5L20.4002 41.2001C21.0002 40.5 21.1002 39.5 20.7002 38.7001C20.3002 37.9001 19.6002 37.4001 18.7002 37.4001H18.3002C20.0002 31.7001 24.9002 27.5001 30.7002 26.6C36.5002 25.7 42.5002 28.3001 45.8002 33.2001C46.4002 34.1 47.4002 34.6 48.4002 34.7001C49.4002 34.8001 50.4002 34.3 51.1002 33.5C52.0002 32.4 52.1002 30.8 51.3002 29.6C47.2002 23.5001 40.3002 19.8 33.0002 19.8ZM49.4002 32.1C49.2002 32.4 48.9002 32.5 48.5002 32.5C48.1002 32.5 47.8002 32.3 47.6002 32C43.6002 26.1 36.5002 23.2 29.6002 24.5C22.6002 25.9 17.2002 31.3001 15.8002 38.2001C15.7002 38.5 15.8002 38.9 16.0002 39.1C16.2002 39.4 16.5002 39.5 16.9002 39.5H18.7002V39.7001L14.3002 45L9.90016 39.7001L9.00016 40.4001L9.90016 39.5H12.3002C12.8002 39.5 13.3002 39.1 13.4002 38.6C14.7002 30.6 20.8002 24.1 28.7002 22.4C36.7002 20.7 44.9002 24.0001 49.4002 30.7001C49.7002 31.2001 49.7002 31.7 49.4002 32.1Z" fill="#CD6C38"/>
<path d="M5.4999 18.7H7.6999C8.2999 18.7 8.7999 18.2 8.7999 17.6C8.7999 17 8.2999 16.5 7.6999 16.5H5.4999C4.8999 16.5 4.3999 17 4.3999 17.6C4.3999 18.2 4.8999 18.7 5.4999 18.7Z" fill="#CD6C38"/>
<path d="M12.1 18.7H22C22.6 18.7 23.1 18.2 23.1 17.6C23.1 17 22.6 16.5 22 16.5H12.1C11.5 16.5 11 17 11 17.6C11 18.2 11.5 18.7 12.1 18.7Z" fill="#CD6C38"/>
<path d="M15.3999 21.9999C15.3999 21.3999 14.8999 20.8999 14.2999 20.8999H5.4999C4.8999 20.8999 4.3999 21.3999 4.3999 21.9999C4.3999 22.5999 4.8999 23.0999 5.4999 23.0999H14.2999C14.8999 23.0999 15.3999 22.5999 15.3999 21.9999Z" fill="#CD6C38"/>
<path d="M60.5002 16.5H58.3002C57.7002 16.5 57.2002 17 57.2002 17.6C57.2002 18.2 57.7002 18.7 58.3002 18.7H60.5002C61.1002 18.7 61.6002 18.2 61.6002 17.6C61.6002 17 61.1002 16.5 60.5002 16.5Z" fill="#CD6C38"/>
<path d="M43.9999 18.7H53.8999C54.4999 18.7 54.9999 18.2 54.9999 17.6C54.9999 17 54.4999 16.5 53.8999 16.5H43.9999C43.3999 16.5 42.8999 17 42.8999 17.6C42.8999 18.2 43.3999 18.7 43.9999 18.7Z" fill="#CD6C38"/>
<path d="M60.5001 20.8999H51.7001C51.1001 20.8999 50.6001 21.3999 50.6001 21.9999C50.6001 22.5999 51.1001 23.0999 51.7001 23.0999H60.5001C61.1001 23.0999 61.6001 22.5999 61.6001 21.9999C61.6001 21.3999 61.1001 20.8999 60.5001 20.8999Z" fill="#CD6C38"/>
</g>
</g>
<defs>
<clipPath id="clip0_77_65">
<rect width="66" height="66" fill="white"/>
</clipPath>
</defs>
</svg>
