<svg width="22" height="22" viewBox="0 0 22 22" fill="none" xmlns="http://www.w3.org/2000/svg">
<path d="M11.1198 11.78C11.0401 11.77 10.9595 11.77 10.8798 11.78C10.0317 11.7515 9.22797 11.3944 8.63831 10.7842C8.04866 10.174 7.71929 9.35853 7.71977 8.51C7.71977 6.7 9.17977 5.23 10.9998 5.23C11.8592 5.22851 12.6848 5.56481 13.2986 6.1664C13.9124 6.768 14.2652 7.58669 14.2809 8.44599C14.2966 9.30528 13.9741 10.1364 13.3827 10.76C12.7914 11.3837 11.9787 11.75 11.1198 11.78ZM17.7398 18.38C15.902 20.0691 13.4958 21.0044 10.9998 21C8.39977 21 6.03977 20.01 4.25977 18.38C4.35977 17.44 4.95977 16.52 6.02977 15.8C8.76977 13.98 13.2498 13.98 15.9698 15.8C17.0398 16.52 17.6398 17.44 17.7398 18.38Z" stroke="#363939" stroke-width="1.5" stroke-linecap="round" stroke-linejoin="round"/>
<path d="M11 21C16.523 21 21 16.523 21 11C21 5.477 16.523 1 11 1C5.477 1 1 5.477 1 11C1 16.523 5.477 21 11 21Z" stroke="#363939" stroke-width="1.5" stroke-linecap="round" stroke-linejoin="round"/>
</svg>
