<svg width="60" height="60" viewBox="0 0 60 60" fill="none" xmlns="http://www.w3.org/2000/svg">
<g clip-path="url(#clip0_77_11)">
<mask id="mask0_77_11" style="mask-type:luminance" maskUnits="userSpaceOnUse" x="0" y="0" width="60" height="60">
<path d="M60 0H0V60H60V0Z" fill="white"/>
</mask>
<g mask="url(#mask0_77_11)">
<path d="M55.6128 36.5882C50.6648 18.9887 36.8533 5.15597 19.2244 0.199633C16.3501 -0.608237 13.3655 1.10963 12.6213 4.01986C12.1757 5.76235 12.6272 7.57672 13.8017 8.89383L4.33341 45.9195C3.57841 48.8718 5.84802 51.6251 8.74325 51.6251C9.52308 51.6251 9.25392 51.6428 16.2693 49.8488C16.8044 49.7119 17.1272 49.1673 16.9904 48.6323C16.8537 48.0972 16.3087 47.7747 15.774 47.9112L9.39783 49.5417C7.50751 50.0247 5.78702 48.3086 6.27127 46.4151L7.45601 41.782C10.7938 43.5653 14.8126 41.1317 14.8126 37.3754C14.8126 36.3735 14.5171 35.4067 13.9581 34.5792C13.649 34.1216 13.0272 34.0011 12.5697 34.3104C12.1121 34.6197 11.9917 35.2412 12.301 35.6987C12.6358 36.1942 12.8127 36.7742 12.8127 37.3754C12.8127 39.8649 9.94233 41.2658 7.97663 39.7464L15.8802 8.83842C15.973 8.47558 15.8553 8.09133 15.5752 7.84283C13.8667 6.32659 14.158 3.58323 16.1283 2.44674C16.9099 1.996 17.8172 1.88175 18.6831 2.12512C35.5365 6.86322 48.9494 20.276 53.6875 37.1294C54.1928 38.9262 53.1138 40.789 51.297 41.2537C49.5324 41.7046 47.7992 40.7107 47.2824 39.0067C43.1418 25.3485 32.97 14.7717 20.3897 9.78158C19.8762 9.57817 19.2951 9.82908 19.0914 10.3424C18.8878 10.8558 19.1389 11.4371 19.6523 11.6407C32.109 16.5817 41.4822 26.7678 45.3685 39.5869C45.4409 39.8257 45.5295 40.0552 45.631 40.2757L38.5644 42.0828C38.1218 42.196 37.8122 42.5948 37.8122 43.0516V52.8126C37.8122 53.7431 37.0552 54.5 36.1248 54.5C35.1943 54.5 34.4373 53.7431 34.4373 52.8126V50.6508C34.4373 48.6739 32.918 47.0713 30.9785 47.0023C28.9187 46.9323 27.2599 48.5768 27.2599 50.5887V56.0887C27.2599 57.1425 26.4025 58 25.3487 58C24.2947 58 23.4373 57.1427 23.4373 56.0887V43.7501C23.4373 43.1978 22.9895 42.7501 22.4373 42.7501C21.8851 42.7501 21.4373 43.1978 21.4373 43.7501V56.0887C21.4373 58.2452 23.1919 60 25.3487 60C27.5052 60 29.2599 58.2454 29.2599 56.0887V50.5887C29.2599 49.6907 30.0033 48.9677 30.9075 49.0011C31.7511 49.0311 32.4373 49.7711 32.4373 50.6507V52.8124C32.4373 54.8457 34.0915 56.4999 36.1248 56.4999C38.1581 56.4999 39.8123 54.8457 39.8123 52.8124V43.828L46.9165 42.0112C49.4297 44.2496 53.3995 43.6286 55.0985 40.6833C55.8206 39.4312 56.0033 37.9769 55.6128 36.5882Z" fill="#CD6C38"/>
<path d="M23.8848 26.9718C24.3236 27.3071 24.9511 27.2233 25.2865 26.7845C27.7772 23.525 25.4618 18.7505 21.312 18.7505C18.555 18.7505 16.312 20.9935 16.312 23.7505C16.312 25.8326 17.6234 27.7173 19.5753 28.4403C20.0906 28.6312 20.6676 28.3702 20.8603 27.85C21.0523 27.3321 20.7878 26.7567 20.27 26.5648C19.0988 26.131 18.312 25 18.312 23.7505C18.312 22.0962 19.6578 20.7505 21.312 20.7505C23.807 20.7505 25.1873 23.6206 23.6973 25.5701C23.3621 26.009 23.446 26.6365 23.8848 26.9718Z" fill="#CD6C38"/>
<path d="M28.0615 36.7505C28.0615 39.5075 30.3045 41.7504 33.0615 41.7504C35.8185 41.7504 38.0615 39.5075 38.0615 36.7505C38.0615 36.1982 37.6138 35.7505 37.0615 35.7505C36.5093 35.7505 36.0615 36.1982 36.0615 36.7505C36.0615 38.4046 34.7156 39.7505 33.0615 39.7505C31.4074 39.7505 30.0615 38.4046 30.0615 36.7505C30.0615 34.9106 31.718 33.483 33.5613 33.7917C34.106 33.8829 34.6215 33.5152 34.7126 32.9706C34.8038 32.4259 34.4361 31.9105 33.8915 31.8192C30.844 31.3092 28.0615 33.6625 28.0615 36.7505Z" fill="#CD6C38"/>
<path d="M34.0235 29.3329C34.5533 29.4927 35.1105 29.1924 35.2698 28.6646C36.0295 26.1483 34.1758 23.7505 31.5804 23.7505C30.9792 23.7505 30.5595 24.2238 30.5625 24.7561C30.5655 25.299 31.003 25.7516 31.568 25.7506C32.8212 25.7482 33.7312 26.8412 33.3552 28.0866C33.1957 28.6153 33.4948 29.1733 34.0235 29.3329Z" fill="#CD6C38"/>
<path d="M24.4276 34.2288C24.4663 33.6778 24.051 33.1999 23.5001 33.1612C22.9492 33.1227 22.4712 33.5378 22.4325 34.0886C22.3312 35.5318 21.055 36.5555 19.6924 36.0096C19.1797 35.8042 18.5977 36.0535 18.3922 36.5662C18.1869 37.079 18.4362 37.661 18.9489 37.8663C21.5773 38.9188 24.2313 37.0226 24.4276 34.2288Z" fill="#CD6C38"/>
</g>
</g>
<defs>
<clipPath id="clip0_77_11">
<rect width="60" height="60" fill="white"/>
</clipPath>
</defs>
</svg>
